<svg width="25" height="25" viewBox="0 0 25 25" fill="none" xmlns="http://www.w3.org/2000/svg">
<mask id="mask0_262_65" style="mask-type:alpha" maskUnits="userSpaceOnUse" x="0" y="0" width="25" height="25">
<rect x="0.571289" y="0.236328" width="24" height="24" fill="#D9D9D9"/>
</mask>
<g mask="url(#mask0_262_65)">
<path d="M22.1713 23.2363L19.0963 20.1863C18.7963 20.3697 18.4755 20.5072 18.1338 20.5988C17.7921 20.6905 17.438 20.7363 17.0713 20.7363C15.9713 20.7363 15.0296 20.3447 14.2463 19.5613C13.463 18.778 13.0713 17.8363 13.0713 16.7363C13.0713 15.6363 13.463 14.6947 14.2463 13.9113C15.0296 13.128 15.9713 12.7363 17.0713 12.7363C18.1713 12.7363 19.113 13.128 19.8963 13.9113C20.6796 14.6947 21.0713 15.6363 21.0713 16.7363C21.0713 17.1197 21.0213 17.4822 20.9213 17.8238C20.8213 18.1655 20.6796 18.4863 20.4963 18.7863L23.5713 21.8363L22.1713 23.2363ZM6.07129 20.7363C4.97129 20.7363 4.02962 20.3447 3.24629 19.5613C2.46296 18.778 2.07129 17.8363 2.07129 16.7363C2.07129 15.6363 2.46296 14.6947 3.24629 13.9113C4.02962 13.128 4.97129 12.7363 6.07129 12.7363C7.17129 12.7363 8.11296 13.128 8.89629 13.9113C9.67962 14.6947 10.0713 15.6363 10.0713 16.7363C10.0713 17.8363 9.67962 18.778 8.89629 19.5613C8.11296 20.3447 7.17129 20.7363 6.07129 20.7363ZM6.07129 18.7363C6.62129 18.7363 7.09212 18.5405 7.48379 18.1488C7.87546 17.7572 8.07129 17.2863 8.07129 16.7363C8.07129 16.1863 7.87546 15.7155 7.48379 15.3238C7.09212 14.9322 6.62129 14.7363 6.07129 14.7363C5.52129 14.7363 5.05046 14.9322 4.65879 15.3238C4.26712 15.7155 4.07129 16.1863 4.07129 16.7363C4.07129 17.2863 4.26712 17.7572 4.65879 18.1488C5.05046 18.5405 5.52129 18.7363 6.07129 18.7363ZM17.0713 18.7363C17.6213 18.7363 18.0921 18.5405 18.4838 18.1488C18.8755 17.7572 19.0713 17.2863 19.0713 16.7363C19.0713 16.1863 18.8755 15.7155 18.4838 15.3238C18.0921 14.9322 17.6213 14.7363 17.0713 14.7363C16.5213 14.7363 16.0505 14.9322 15.6588 15.3238C15.2671 15.7155 15.0713 16.1863 15.0713 16.7363C15.0713 17.2863 15.2671 17.7572 15.6588 18.1488C16.0505 18.5405 16.5213 18.7363 17.0713 18.7363ZM6.07129 9.73633C4.97129 9.73633 4.02962 9.34466 3.24629 8.56133C2.46296 7.778 2.07129 6.83633 2.07129 5.73633C2.07129 4.63633 2.46296 3.69466 3.24629 2.91133C4.02962 2.12799 4.97129 1.73633 6.07129 1.73633C7.17129 1.73633 8.11296 2.12799 8.89629 2.91133C9.67962 3.69466 10.0713 4.63633 10.0713 5.73633C10.0713 6.83633 9.67962 7.778 8.89629 8.56133C8.11296 9.34466 7.17129 9.73633 6.07129 9.73633ZM17.0713 9.73633C15.9713 9.73633 15.0296 9.34466 14.2463 8.56133C13.463 7.778 13.0713 6.83633 13.0713 5.73633C13.0713 4.63633 13.463 3.69466 14.2463 2.91133C15.0296 2.12799 15.9713 1.73633 17.0713 1.73633C18.1713 1.73633 19.113 2.12799 19.8963 2.91133C20.6796 3.69466 21.0713 4.63633 21.0713 5.73633C21.0713 6.83633 20.6796 7.778 19.8963 8.56133C19.113 9.34466 18.1713 9.73633 17.0713 9.73633ZM6.07129 7.73633C6.62129 7.73633 7.09212 7.54049 7.48379 7.14883C7.87546 6.75716 8.07129 6.28633 8.07129 5.73633C8.07129 5.18633 7.87546 4.71549 7.48379 4.32383C7.09212 3.93216 6.62129 3.73633 6.07129 3.73633C5.52129 3.73633 5.05046 3.93216 4.65879 4.32383C4.26712 4.71549 4.07129 5.18633 4.07129 5.73633C4.07129 6.28633 4.26712 6.75716 4.65879 7.14883C5.05046 7.54049 5.52129 7.73633 6.07129 7.73633ZM17.0713 7.73633C17.6213 7.73633 18.0921 7.54049 18.4838 7.14883C18.8755 6.75716 19.0713 6.28633 19.0713 5.73633C19.0713 5.18633 18.8755 4.71549 18.4838 4.32383C18.0921 3.93216 17.6213 3.73633 17.0713 3.73633C16.5213 3.73633 16.0505 3.93216 15.6588 4.32383C15.2671 4.71549 15.0713 5.18633 15.0713 5.73633C15.0713 6.28633 15.2671 6.75716 15.6588 7.14883C16.0505 7.54049 16.5213 7.73633 17.0713 7.73633Z" fill="#1C1B1F"/>
</g>
</svg>
