<svg width="25" height="25" viewBox="0 0 25 25" fill="none" xmlns="http://www.w3.org/2000/svg">
<mask id="mask0_261_59" style="mask-type:alpha" maskUnits="userSpaceOnUse" x="0" y="0" width="25" height="25">
<rect x="0.683594" y="0.398438" width="24" height="24" fill="#D9D9D9"/>
</mask>
<g mask="url(#mask0_261_59)">
<path d="M11.2834 16.3984C11.2834 15.0484 11.4042 14.0776 11.6459 13.4859C11.8876 12.8943 12.4001 12.2484 13.1834 11.5484C13.8667 10.9484 14.3876 10.4276 14.7459 9.98594C15.1042 9.54427 15.2834 9.0401 15.2834 8.47344C15.2834 7.7901 15.0542 7.22344 14.5959 6.77344C14.1376 6.32344 13.5001 6.09844 12.6834 6.09844C11.8334 6.09844 11.1876 6.35677 10.7459 6.87344C10.3042 7.3901 9.99173 7.9151 9.8084 8.44844L7.2334 7.34844C7.5834 6.28177 8.22507 5.35677 9.1584 4.57344C10.0917 3.7901 11.2667 3.39844 12.6834 3.39844C14.4334 3.39844 15.7792 3.88594 16.7209 4.86094C17.6626 5.83594 18.1334 7.00677 18.1334 8.37344C18.1334 9.20677 17.9542 9.91927 17.5959 10.5109C17.2376 11.1026 16.6751 11.7734 15.9084 12.5234C15.0917 13.3068 14.5959 13.9026 14.4209 14.3109C14.2459 14.7193 14.1584 15.4151 14.1584 16.3984H11.2834ZM12.6834 22.3984C12.1334 22.3984 11.6626 22.2026 11.2709 21.8109C10.8792 21.4193 10.6834 20.9484 10.6834 20.3984C10.6834 19.8484 10.8792 19.3776 11.2709 18.9859C11.6626 18.5943 12.1334 18.3984 12.6834 18.3984C13.2334 18.3984 13.7042 18.5943 14.0959 18.9859C14.4876 19.3776 14.6834 19.8484 14.6834 20.3984C14.6834 20.9484 14.4876 21.4193 14.0959 21.8109C13.7042 22.2026 13.2334 22.3984 12.6834 22.3984Z" fill="#1C1B1F"/>
</g>
</svg>
